<?xml version="1.0" standalone="no"?>
<!DOCTYPE svg PUBLIC "-//W3C//DTD SVG 20010904//EN"
 "http://www.w3.org/TR/2001/REC-SVG-20010904/DTD/svg10.dtd">
<svg version="1.0" xmlns="http://www.w3.org/2000/svg"
 width="800.000000pt" height="600.000000pt" viewBox="0 0 800.000000 600.000000"
 preserveAspectRatio="xMidYMid meet">

<g transform="translate(0.000000,600.000000) scale(0.100000,-0.100000)"
fill="#000000" stroke="none">
<path d="M4741 4226 l-83 -83 2 -287 1 -286 -98 0 -98 0 -83 -83 -82 -82 0
-325 c0 -179 -3 -336 -7 -349 -6 -22 -10 -23 -55 -18 -71 9 -116 40 -144 101
-24 51 -24 54 -24 404 l0 352 -128 0 -127 0 -88 -88 -87 -87 0 -244 c0 -228
-1 -243 -17 -236 -10 4 -133 10 -273 12 l-255 4 -87 -85 -88 -85 0 -536 0
-535 193 0 c422 0 521 35 748 260 135 135 178 196 204 295 l17 62 67 7 c135
12 230 60 328 165 l63 66 0 -66 c0 -36 -5 -70 -11 -76 -15 -15 -3 -33 22 -33
12 0 19 7 19 20 0 11 -4 20 -10 20 -6 0 -10 30 -10 71 l0 71 59 64 c87 92 104
143 109 322 l4 142 90 0 90 0 89 81 89 81 0 534 0 534 -128 0 -127 0 -84 -84z
m244 -6 l-80 -80 -115 0 -115 0 80 80 80 80 115 0 115 0 -80 -80z m5 -1045
l-80 -80 0 521 0 521 78 74 77 74 3 -515 2 -515 -80 -80z m-1020 310 l-74 -75
-115 0 -115 0 74 75 74 75 115 0 115 0 -74 -75z m114 -678 c33 -66 101 -107
179 -107 25 0 27 -3 21 -22 -26 -87 -92 -136 -181 -138 -27 0 -34 4 -39 28
-14 55 -66 144 -114 194 l-50 52 0 295 0 296 78 78 77 78 5 -358 c5 -323 7
-362 24 -396z m624 386 c2 -345 1 -366 -19 -425 -22 -67 -60 -127 -108 -172
l-31 -30 0 47 c0 35 4 47 15 47 9 0 15 9 15 25 0 16 -6 25 -15 25 -13 0 -15
45 -15 342 l0 343 78 80 77 80 -75 -73 -75 -72 -120 0 -119 0 74 75 75 76 120
-3 120 -3 3 -362z m-1033 -298 c259 -59 395 -228 395 -489 -1 -178 -33 -257
-157 -386 l-82 -85 29 60 c81 172 59 423 -51 564 -11 13 -19 34 -19 47 0 17
-6 24 -20 24 -11 0 -37 11 -58 24 -20 14 -62 34 -93 46 -115 42 -186 51 -439
57 l-244 6 84 79 85 79 250 -5 c176 -4 271 -10 320 -21z m895 -210 c0 -8 -9
-15 -20 -15 -11 0 -20 7 -20 15 0 8 9 15 20 15 11 0 20 -7 20 -15z m-792 -77
c-6 -18 -28 -21 -28 -4 0 9 7 16 16 16 9 0 14 -5 12 -12z m743 -71 l-20 -20
17 47 c15 43 17 45 20 20 2 -17 -4 -34 -17 -47z m-1183 -222 l2 -219 -82 -85
-83 -85 81 77 82 77 108 0 c60 0 124 4 142 9 40 12 40 5 2 -47 -63 -88 -161
-124 -316 -120 l-99 3 -3 308 -2 308 82 -3 83 -3 3 -220z m108 200 c117 -34
184 -125 192 -256 2 -43 2 -94 -2 -113 -6 -30 -12 -37 -44 -46 -20 -5 -83 -10
-139 -10 l-103 0 0 220 0 220 23 0 c13 0 46 -7 73 -15z m-367 -695 c44 -103
46 -110 22 -110 -11 0 -25 9 -31 20 -7 13 -21 20 -40 20 -19 0 -33 -7 -40 -20
-9 -17 -50 -29 -50 -15 0 3 12 34 26 68 15 34 30 72 35 85 17 43 48 24 78 -48z
m96 -20 c0 -78 -2 -85 -20 -85 -18 0 -20 8 -23 74 -3 86 1 104 25 99 16 -3 18
-15 18 -88z m75 20 l0 -70 36 0 c28 0 35 -3 32 -17 -2 -14 -15 -19 -56 -21
l-52 -3 0 90 c0 84 1 91 20 91 18 0 20 -7 20 -70z m113 38 l18 -32 19 32 c12
19 28 32 40 32 26 0 25 -7 -10 -60 -20 -30 -30 -58 -30 -82 0 -31 -4 -38 -20
-38 -16 0 -20 7 -20 38 0 24 -10 52 -30 82 -36 54 -37 60 -7 60 14 0 28 -11
40 -32z"/>
<path d="M3525 2830 c-9 -15 14 -40 31 -33 22 8 18 43 -5 43 -11 0 -23 -5 -26
-10z"/>
<path d="M3944 2415 c-7 -18 3 -35 21 -35 18 0 26 15 19 34 -8 20 -33 21 -40
1z"/>
<path d="M3016 1804 c-9 -23 -8 -24 13 -24 14 0 18 5 14 20 -6 24 -19 26 -27
4z"/>
<path d="M4283 4144 c-9 -23 13 -40 32 -24 12 10 13 16 4 26 -15 18 -28 18
-36 -2z"/>
<path d="M3299 3153 c-8 -47 -6 -51 15 -44 25 10 28 44 4 49 -10 2 -19 0 -19
-5z"/>
<path d="M3154 2978 l-29 -33 33 29 c17 17 32 31 32 33 0 8 -8 1 -36 -29z"/>
</g>
</svg>
